<mxfile host="Electron" modified="2023-04-26T16:51:11.593Z" agent="Mozilla/5.0 (Windows NT 10.0; Win64; x64) AppleWebKit/537.36 (KHTML, like Gecko) draw.io/21.2.1 Chrome/112.0.5615.87 Electron/24.1.2 Safari/537.36" etag="tBgfY4vek6jCq08-urkN" version="21.2.1" type="device">
  <diagram name="Seite-1" id="Ykm3Z0ZVoT0FwnKdfcVw">
    <mxGraphModel dx="980" dy="566" grid="1" gridSize="10" guides="1" tooltips="1" connect="1" arrows="1" fold="1" page="1" pageScale="1" pageWidth="827" pageHeight="1169" math="0" shadow="0">
      <root>
        <mxCell id="0" />
        <mxCell id="1" parent="0" />
        <mxCell id="6CLPBXFwfeiXS5bkLw51-1" value="Beastopia&amp;nbsp;- Direct Messages" style="strokeWidth=1;shadow=0;dashed=0;align=center;html=1;shape=mxgraph.mockup.containers.window;align=left;verticalAlign=top;spacingLeft=8;strokeColor2=#008cff;strokeColor3=#c4c4c4;fontColor=#666666;mainText=;fontSize=17;labelBackgroundColor=none;whiteSpace=wrap;" parent="1" vertex="1">
          <mxGeometry x="80" y="20" width="663" height="500" as="geometry" />
        </mxCell>
        <mxCell id="6CLPBXFwfeiXS5bkLw51-2" value="" style="verticalLabelPosition=bottom;shadow=0;dashed=0;align=center;html=1;verticalAlign=top;strokeWidth=1;shape=mxgraph.mockup.graphics.simpleIcon;strokeColor=#999999;" parent="1" vertex="1">
          <mxGeometry x="80" y="51" width="663" height="469" as="geometry" />
        </mxCell>
        <mxCell id="6CLPBXFwfeiXS5bkLw51-6" value="&lt;p style=&quot;line-height: 20%;&quot;&gt;&lt;br&gt;&lt;/p&gt;" style="strokeWidth=1;shadow=0;dashed=0;align=center;html=1;shape=mxgraph.mockup.text.textBox;fontColor=#666666;align=left;fontSize=17;spacingLeft=4;spacingTop=-3;whiteSpace=wrap;strokeColor=#666666;mainText=" parent="1" vertex="1">
          <mxGeometry x="100" y="90" width="210" height="370" as="geometry" />
        </mxCell>
        <mxCell id="6CLPBXFwfeiXS5bkLw51-8" value="&lt;p style=&quot;line-height: 20%;&quot;&gt;&lt;br&gt;&lt;/p&gt;" style="strokeWidth=1;shadow=0;dashed=0;align=center;html=1;shape=mxgraph.mockup.text.textBox;fontColor=#666666;align=left;fontSize=17;spacingLeft=4;spacingTop=-3;whiteSpace=wrap;strokeColor=#666666;mainText=" parent="1" vertex="1">
          <mxGeometry x="320" y="90" width="410" height="370" as="geometry" />
        </mxCell>
        <mxCell id="6CLPBXFwfeiXS5bkLw51-9" value="" style="strokeWidth=1;shadow=0;dashed=0;align=center;html=1;shape=mxgraph.mockup.text.textBox;fontColor=#666666;align=left;fontSize=17;spacingLeft=4;spacingTop=-3;whiteSpace=wrap;strokeColor=#666666;mainText=" parent="1" vertex="1">
          <mxGeometry x="100" y="90" width="210" height="30" as="geometry" />
        </mxCell>
        <mxCell id="6CLPBXFwfeiXS5bkLw51-10" value="My Chats" style="text;html=1;strokeColor=none;fillColor=none;align=center;verticalAlign=middle;whiteSpace=wrap;rounded=0;fontSize=16;" parent="1" vertex="1">
          <mxGeometry x="133" y="90.5" width="144" height="30" as="geometry" />
        </mxCell>
        <mxCell id="6CLPBXFwfeiXS5bkLw51-14" value="" style="rounded=0;whiteSpace=wrap;html=1;strokeColor=#666666;" parent="1" vertex="1">
          <mxGeometry x="320" y="420" width="410" height="40" as="geometry" />
        </mxCell>
        <mxCell id="6CLPBXFwfeiXS5bkLw51-11" value="&lt;font style=&quot;font-size: 10px;&quot;&gt;Chat input...&lt;/font&gt;" style="strokeWidth=1;html=1;shadow=0;dashed=0;shape=mxgraph.ios.iTextInput;strokeColor=#444444;buttonText=;fontSize=8;whiteSpace=wrap;align=left;" parent="1" vertex="1">
          <mxGeometry x="330" y="429.5" width="320" height="20" as="geometry" />
        </mxCell>
        <mxCell id="6CLPBXFwfeiXS5bkLw51-12" value="&lt;font size=&quot;1&quot;&gt;Enter&lt;/font&gt;" style="rounded=1;fillColor=#0057D8;strokeColor=none;html=1;whiteSpace=wrap;fontColor=#ffffff;align=center;verticalAlign=middle;fontStyle=0;fontSize=12;sketch=0;" parent="1" vertex="1">
          <mxGeometry x="660" y="429.5" width="60" height="20" as="geometry" />
        </mxCell>
        <mxCell id="6CLPBXFwfeiXS5bkLw51-13" value="&lt;b&gt;Alice&lt;/b&gt;: Hi" style="text;html=1;strokeColor=none;fillColor=none;align=left;verticalAlign=middle;whiteSpace=wrap;rounded=0;" parent="1" vertex="1">
          <mxGeometry x="330" y="100" width="60" height="30" as="geometry" />
        </mxCell>
        <mxCell id="6CLPBXFwfeiXS5bkLw51-7" value="" style="verticalLabelPosition=bottom;shadow=0;dashed=0;align=center;html=1;verticalAlign=top;strokeWidth=1;shape=mxgraph.mockup.navigation.scrollBar;strokeColor=#999999;barPos=100;fillColor2=#99ddff;strokeColor2=none;direction=north;" parent="1" vertex="1">
          <mxGeometry x="710" y="90.5" width="20" height="329.5" as="geometry" />
        </mxCell>
        <mxCell id="6CLPBXFwfeiXS5bkLw51-15" value="&lt;b&gt;Bob&lt;/b&gt;: Hi" style="text;html=1;strokeColor=none;fillColor=none;align=left;verticalAlign=middle;whiteSpace=wrap;rounded=0;" parent="1" vertex="1">
          <mxGeometry x="330" y="120" width="60" height="30" as="geometry" />
        </mxCell>
        <mxCell id="6CLPBXFwfeiXS5bkLw51-16" value="&lt;b&gt;AnotherUser&lt;/b&gt;: Hey, nice group!" style="text;html=1;strokeColor=none;fillColor=none;align=left;verticalAlign=middle;whiteSpace=wrap;rounded=0;" parent="1" vertex="1">
          <mxGeometry x="330" y="140" width="370" height="30" as="geometry" />
        </mxCell>
        <mxCell id="6CLPBXFwfeiXS5bkLw51-17" value="" style="rounded=0;whiteSpace=wrap;html=1;fillColor=#bac8d3;strokeColor=#666666;" parent="1" vertex="1">
          <mxGeometry x="100" y="120.5" width="190" height="60" as="geometry" />
        </mxCell>
        <mxCell id="6CLPBXFwfeiXS5bkLw51-18" value="" style="rounded=0;whiteSpace=wrap;html=1;strokeColor=#666666;" parent="1" vertex="1">
          <mxGeometry x="100" y="180.5" width="190" height="60" as="geometry" />
        </mxCell>
        <mxCell id="6CLPBXFwfeiXS5bkLw51-19" value="" style="rounded=0;whiteSpace=wrap;html=1;strokeColor=#666666;" parent="1" vertex="1">
          <mxGeometry x="100" y="240.5" width="190" height="60" as="geometry" />
        </mxCell>
        <mxCell id="6CLPBXFwfeiXS5bkLw51-22" value="&lt;p style=&quot;line-height: 120%; font-size: 13px;&quot;&gt;&lt;span style=&quot;font-size: 13px;&quot;&gt;Bob&lt;/span&gt;&lt;/p&gt;" style="text;html=1;strokeColor=none;fillColor=none;align=left;verticalAlign=middle;whiteSpace=wrap;rounded=0;fontSize=13;" parent="1" vertex="1">
          <mxGeometry x="165" y="189.5" width="98" height="12.5" as="geometry" />
        </mxCell>
        <mxCell id="6CLPBXFwfeiXS5bkLw51-23" value="" style="verticalLabelPosition=bottom;shadow=0;dashed=0;align=center;html=1;verticalAlign=top;strokeWidth=1;shape=mxgraph.mockup.containers.userMale;strokeColor=#666666;strokeColor2=#008cff;" parent="1" vertex="1">
          <mxGeometry x="110" y="189.5" width="44" height="42" as="geometry" />
        </mxCell>
        <mxCell id="6CLPBXFwfeiXS5bkLw51-24" value="" style="ellipse;whiteSpace=wrap;html=1;aspect=fixed;fillColor=#60a917;fontColor=#ffffff;strokeColor=#2D7600;" parent="1" vertex="1">
          <mxGeometry x="144" y="221.5" width="10" height="10" as="geometry" />
        </mxCell>
        <mxCell id="6CLPBXFwfeiXS5bkLw51-25" value="&lt;p style=&quot;line-height: 120%; font-size: 13px;&quot;&gt;&lt;span style=&quot;font-size: 13px;&quot;&gt;My first group&lt;/span&gt;&lt;/p&gt;" style="text;html=1;strokeColor=none;fillColor=none;align=left;verticalAlign=middle;whiteSpace=wrap;rounded=0;fontSize=13;" parent="1" vertex="1">
          <mxGeometry x="110" y="128.5" width="125" height="12.5" as="geometry" />
        </mxCell>
        <mxCell id="6CLPBXFwfeiXS5bkLw51-26" value="" style="html=1;verticalLabelPosition=bottom;align=center;labelBackgroundColor=#ffffff;verticalAlign=top;strokeWidth=2;strokeColor=#0080F0;shadow=0;dashed=0;shape=mxgraph.ios7.icons.edit;fillColor=#BAC8D3;" parent="1" vertex="1">
          <mxGeometry x="115" y="150.60000000000002" width="20" height="19.4" as="geometry" />
        </mxCell>
        <mxCell id="6CLPBXFwfeiXS5bkLw51-27" value="&lt;b&gt;MyUsername&lt;/b&gt;: Nice to meet you all!" style="text;html=1;strokeColor=none;fillColor=none;align=left;verticalAlign=middle;whiteSpace=wrap;rounded=0;labelBackgroundColor=#FFFFFF;" parent="1" vertex="1">
          <mxGeometry x="330" y="159.5" width="371" height="30" as="geometry" />
        </mxCell>
        <mxCell id="6CLPBXFwfeiXS5bkLw51-29" value="&lt;p style=&quot;line-height: 120%; font-size: 13px;&quot;&gt;&lt;span style=&quot;font-size: 13px;&quot;&gt;AnotherUser&lt;/span&gt;&lt;/p&gt;" style="text;html=1;strokeColor=none;fillColor=none;align=left;verticalAlign=middle;whiteSpace=wrap;rounded=0;fontSize=13;" parent="1" vertex="1">
          <mxGeometry x="165" y="249.5" width="98" height="12.5" as="geometry" />
        </mxCell>
        <mxCell id="6CLPBXFwfeiXS5bkLw51-30" value="" style="verticalLabelPosition=bottom;shadow=0;dashed=0;align=center;html=1;verticalAlign=top;strokeWidth=1;shape=mxgraph.mockup.containers.userMale;strokeColor=#666666;strokeColor2=#008cff;" parent="1" vertex="1">
          <mxGeometry x="110" y="249.5" width="44" height="42" as="geometry" />
        </mxCell>
        <mxCell id="6CLPBXFwfeiXS5bkLw51-31" value="" style="ellipse;whiteSpace=wrap;html=1;aspect=fixed;fillColor=#60a917;fontColor=#ffffff;strokeColor=#2D7600;" parent="1" vertex="1">
          <mxGeometry x="144" y="281.5" width="10" height="10" as="geometry" />
        </mxCell>
        <mxCell id="6CLPBXFwfeiXS5bkLw51-36" value="" style="verticalLabelPosition=bottom;shadow=0;dashed=0;align=center;html=1;verticalAlign=top;strokeWidth=1;shape=mxgraph.mockup.navigation.scrollBar;strokeColor=#999999;barPos=100;fillColor2=#99ddff;strokeColor2=none;direction=north;" parent="1" vertex="1">
          <mxGeometry x="290" y="120" width="20" height="300" as="geometry" />
        </mxCell>
        <mxCell id="6CLPBXFwfeiXS5bkLw51-37" value="" style="strokeWidth=1;shadow=0;dashed=0;align=center;html=1;shape=mxgraph.mockup.text.textBox;fontColor=#666666;align=left;fontSize=17;spacingLeft=4;spacingTop=-3;whiteSpace=wrap;strokeColor=#666666;mainText=" parent="1" vertex="1">
          <mxGeometry x="100" y="420" width="110" height="40" as="geometry" />
        </mxCell>
        <mxCell id="6CLPBXFwfeiXS5bkLw51-42" value="" style="strokeWidth=1;shadow=0;dashed=0;align=center;html=1;shape=mxgraph.mockup.text.textBox;fontColor=#666666;align=left;fontSize=17;spacingLeft=4;spacingTop=-3;whiteSpace=wrap;strokeColor=#666666;mainText=" parent="1" vertex="1">
          <mxGeometry x="210" y="420" width="100" height="40" as="geometry" />
        </mxCell>
        <mxCell id="6CLPBXFwfeiXS5bkLw51-43" value="Back" style="text;html=1;strokeColor=none;fillColor=none;align=center;verticalAlign=middle;whiteSpace=wrap;rounded=0;" parent="1" vertex="1">
          <mxGeometry x="100" y="425" width="110" height="30" as="geometry" />
        </mxCell>
        <mxCell id="6CLPBXFwfeiXS5bkLw51-44" value="&lt;font style=&quot;font-size: 12px;&quot;&gt;New Group&lt;/font&gt;" style="text;html=1;strokeColor=none;fillColor=none;align=center;verticalAlign=middle;whiteSpace=wrap;rounded=0;" parent="1" vertex="1">
          <mxGeometry x="205" y="425" width="110" height="30" as="geometry" />
        </mxCell>
        <mxCell id="6CLPBXFwfeiXS5bkLw51-46" value="" style="verticalLabelPosition=bottom;verticalAlign=top;html=1;shadow=0;dashed=0;strokeWidth=1;shape=mxgraph.ios.iDeleteApp;fillColor=#FF3333;fillColor2=#000000;strokeColor=#ffffff;sketch=0;" parent="1" vertex="1">
          <mxGeometry x="149" y="150" width="20" height="20" as="geometry" />
        </mxCell>
        <mxCell id="6CLPBXFwfeiXS5bkLw51-47" value="" style="verticalLabelPosition=bottom;verticalAlign=top;html=1;shadow=0;dashed=0;strokeWidth=1;shape=mxgraph.ios.iDeleteApp;fillColor=#FF3333;fillColor2=#000000;strokeColor=#ffffff;sketch=0;" parent="1" vertex="1">
          <mxGeometry x="168" y="211.5" width="20" height="20" as="geometry" />
        </mxCell>
        <mxCell id="6CLPBXFwfeiXS5bkLw51-48" value="" style="verticalLabelPosition=bottom;verticalAlign=top;html=1;shadow=0;dashed=0;strokeWidth=1;shape=mxgraph.ios.iDeleteApp;fillColor=#FF3333;fillColor2=#000000;strokeColor=#ffffff;sketch=0;" parent="1" vertex="1">
          <mxGeometry x="168" y="271.5" width="20" height="20" as="geometry" />
        </mxCell>
        <mxCell id="RtDmrMdY4-tISBMWPjyk-1" value="" style="sketch=0;pointerEvents=1;shadow=0;dashed=0;html=1;labelPosition=center;verticalLabelPosition=bottom;verticalAlign=top;outlineConnect=0;align=center;shape=mxgraph.office.concepts.pin;" parent="1" vertex="1">
          <mxGeometry x="185" y="154" width="12.5" height="16" as="geometry" />
        </mxCell>
        <mxCell id="RtDmrMdY4-tISBMWPjyk-2" value="" style="sketch=0;pointerEvents=1;shadow=0;dashed=0;html=1;labelPosition=center;verticalLabelPosition=bottom;verticalAlign=top;outlineConnect=0;align=center;shape=mxgraph.office.concepts.pin;" parent="1" vertex="1">
          <mxGeometry x="207.75" y="213.5" width="12.5" height="16" as="geometry" />
        </mxCell>
        <mxCell id="RtDmrMdY4-tISBMWPjyk-3" value="" style="sketch=0;pointerEvents=1;shadow=0;dashed=0;html=1;labelPosition=center;verticalLabelPosition=bottom;verticalAlign=top;outlineConnect=0;align=center;shape=mxgraph.office.concepts.pin;" parent="1" vertex="1">
          <mxGeometry x="207.75" y="273.5" width="12.5" height="16" as="geometry" />
        </mxCell>
        <mxCell id="DWMIzVWP4niSSznR6YkN-1" value="" style="html=1;verticalLabelPosition=bottom;align=center;labelBackgroundColor=#ffffff;verticalAlign=top;strokeWidth=2;strokeColor=#0080F0;shadow=0;dashed=0;shape=mxgraph.ios7.icons.edit;" parent="1" vertex="1">
          <mxGeometry x="676" y="172" width="10" height="9.2" as="geometry" />
        </mxCell>
        <mxCell id="DWMIzVWP4niSSznR6YkN-2" value="" style="verticalLabelPosition=bottom;verticalAlign=top;html=1;shadow=0;dashed=0;strokeWidth=1;shape=mxgraph.ios.iDeleteApp;fillColor=#FF3333;fillColor2=#000000;strokeColor=#ffffff;sketch=0;" parent="1" vertex="1">
          <mxGeometry x="691" y="170" width="13" height="13" as="geometry" />
        </mxCell>
        <mxCell id="DWMIzVWP4niSSznR6YkN-3" value="" style="html=1;shadow=0;dashed=0;align=center;verticalAlign=middle;shape=mxgraph.arrows2.arrow;dy=0.82;dx=20.57;direction=north;notch=0;rotation=-30;fontSize=8;spacingTop=0;fontFamily=Verdana;" parent="1" vertex="1">
          <mxGeometry x="646" y="174" width="21.5" height="30.67" as="geometry" />
        </mxCell>
      </root>
    </mxGraphModel>
  </diagram>
</mxfile>
